inDegrees=no
num_controls=7
num_derivatives=13
num_iterations=109
num_multipliers=7
num_parameters=0
num_slacks=7
num_states=26
objective=5.996765
objective_accelerations=0.757212
objective_balance=0.025178
objective_effort=0.516633
objective_height=4.580889
objective_ligament=0.116854
solver_duration=914.090792
status=Solve_Succeeded
success=true
DataType=double
version=3
OpenSimVersion=4.4-2022-07-23-0e9fedc
endheader
time	/jointset/ground_pelvis/pelvis_tilt/value	/jointset/ground_pelvis/pelvis_tx/value	/jointset/ground_pelvis/pelvis_ty/value	/jointset/hip_r/hip_flexion_r/value	/jointset/hip_r/hip_adduction_r/value	/jointset/hip_r/hip_rotation_r/value	/jointset/back/lumbar_extension/value	/jointset/patellofemoral_r/patellar_flexion_r/value	/jointset/knee_r/knee_flexion_r/value	/jointset/knee_r/knee_adduction_r/value	/jointset/knee_r/knee_rotation_r/value	/jointset/ankle_r/ankle_angle_r/value	/jointset/subtalar_r/subtalar_angle_r/value	/jointset/ground_pelvis/pelvis_tilt/speed	/jointset/ground_pelvis/pelvis_tx/speed	/jointset/ground_pelvis/pelvis_ty/speed	/jointset/hip_r/hip_flexion_r/speed	/jointset/hip_r/hip_adduction_r/speed	/jointset/hip_r/hip_rotation_r/speed	/jointset/back/lumbar_extension/speed	/jointset/patellofemoral_r/patellar_flexion_r/speed	/jointset/knee_r/knee_flexion_r/speed	/jointset/knee_r/knee_adduction_r/speed	/jointset/knee_r/knee_rotation_r/speed	/jointset/ankle_r/ankle_angle_r/speed	/jointset/subtalar_r/subtalar_angle_r/speed	/forceset/tau_hip_flexion_r	/forceset/tau_hip_adduction_r	/forceset/tau_hip_rotation_r	/forceset/tau_knee_flexion_r	/forceset/tau_ankle_angle_r	/forceset/tau_subtalar_angle_r	/forceset/tau_lumbar_extension	lambda_cid13_p0	lambda_cid14_p0	lambda_cid14_p1	lambda_cid14_p2	lambda_cid14_p3	lambda_cid14_p4	lambda_cid14_p5	/jointset/ground_pelvis/pelvis_tilt/accel	/jointset/ground_pelvis/pelvis_tx/accel	/jointset/ground_pelvis/pelvis_ty/accel	/jointset/hip_r/hip_flexion_r/accel	/jointset/hip_r/hip_adduction_r/accel	/jointset/hip_r/hip_rotation_r/accel	/jointset/back/lumbar_extension/accel	/jointset/patellofemoral_r/patellar_flexion_r/accel	/jointset/knee_r/knee_flexion_r/accel	/jointset/knee_r/knee_adduction_r/accel	/jointset/knee_r/knee_rotation_r/accel	/jointset/ankle_r/ankle_angle_r/accel	/jointset/subtalar_r/subtalar_angle_r/accel	gamma_cid13_p0	gamma_cid14_p0	gamma_cid14_p1	gamma_cid14_p2	gamma_cid14_p3	gamma_cid14_p4	gamma_cid14_p5
0.5	-0.1802328525324943	0.01074619595723997	0.7816747793630833	1.007879184561816	-0.2202278842684701	-0.1245006307341216	-0.6603432032648836	1.032705349894173	1.032705349894319	-0.07966605111781848	0.1744853153812574	0.3031225651423525	0.1462419861035488	-0.4738121058715985	-0.2188226724538198	-0.602805057746678	2.174580164523908	-0.04750089270873362	0.2253110967364946	-0.7267851283842497	2.133726539557192	2.133726539556803	-0.4179924550462395	-0.00122781725920188	0.5334759097956999	0.1428332785893499	-0.2232865452249786	0.005790155105496744	0.0163823365289302	-0.2968141964213069	0.009603632585097988	0.005586252978751577	0.2573214651030126	-5.013453299639315	-38.93584030036099	-3.859896357403421	0.4303455993814445	-6.799013754410429	-639.9613496558676	64.88484798150166	0.5109297944326338	0.7420188773620624	-0.4694281571631057	-1.501752772098478	-0.201961261476357	-0.3226549365057785	2.079250997450527	-1.526763214609927	-1.526763214609902	0.7197875129965807	-0.06899454228351981	-0.738499994490537	-0.4811516612598096	-5.917066968806883e-08	1.579417879272251e-07	2.256827399076244e-06	7.839777731806334e-07	-3.061999410804995e-07	-1.949484441002906e-07	1.626896128004052e-06
0.51	-0.18494435706696	0.008595232663491409	0.775624711727825	1.029546498500331	-0.2207133088909697	-0.1222658808200964	-0.6675066919913035	1.053962850376526	1.053962850376159	-0.08381045011285959	0.1744719823610612	0.3084192628612141	0.1476451565542179	-0.4684113251623037	-0.2113549255047271	-0.6070681399675132	2.158590590395756	-0.0495702027998102	0.2216714251588015	-0.7058347481674299	2.117483956826172	2.117483956826159	-0.4108237698355455	-0.001434073630586904	0.5257762772555674	0.1377656442143977	-0.2307765879758878	0.006607112310299899	0.01658666437765594	-0.3024324763176809	0.008704975368286775	0.005839214635755247	0.2641437528704981	-4.202443600127232	-39.61961184418749	-4.024662328194943	0.6335503445990607	-6.742699679941759	-646.0895701208653	65.25491989529159	0.5662987070172297	0.7513500202462735	-0.3837360355399078	-1.691338882816113	-0.2071132894556425	-0.3798391522894042	2.114611843582924	-1.716435361779295	-1.716435361722781	0.7252384757889655	0.004496548962615768	-0.7988587993457837	-0.5243969364025139	-4.614328934204622e-08	1.717322241938023e-07	2.190694665560744e-06	8.499986118280675e-07	-3.091302026177358e-07	-1.773788723409663e-07	1.635094133849043e-06
0.52	-0.1895995244947658	0.006519386322546819	0.7695362157141589	1.051045160867594	-0.2212189660956769	-0.1200665707986988	-0.6744583408536049	1.075049239119579	1.07504923911902	-0.08788119636573098	0.1744567743236674	0.3136363314715673	0.1489966851389783	-0.4625446845394205	-0.2037992818930252	-0.6104907334282116	2.140849850281918	-0.05154740915209053	0.2182231182254807	-0.684417155559206	2.099504191717916	2.099504191718281	-0.4032619065974817	-0.001602820660809605	0.5175500880925852	0.132504905407832	-0.2382666307270501	0.007424069514828506	0.01679099222939408	-0.3080507562137	0.007806318151427362	0.006092176292243868	0.2709660406377546	-3.465685456550206	-40.298925985143	-4.181245352380222	0.8269967344766288	-6.721342797876335	-652.1725882550438	65.64599922477042	0.6041017771501872	0.7595982098840136	-0.3013304051358177	-1.851985969235442	-0.1835405137172704	-0.2843820076322212	2.172693475731083	-1.874199690056535	-1.874199690056489	0.798423118470686	-0.06149267404950647	-0.8438113190603633	-0.51977254758333	-3.378876091063525e-08	1.834018071113066e-07	2.109213555140732e-06	8.925102906958356e-07	-3.10379221135312e-07	-1.601474672040721e-07	1.635396788490164e-06
0.53	-0.1941938228894494	0.004519448008361807	0.7634176822214559	1.072357988612898	-0.2217438398610482	-0.1179006616117741	-0.6811936088212697	1.095947459480786	1.095947459480477	-0.09187454355785601	0.1744398486602906	0.3187686701091614	0.1502948310535012	-0.4562413694243992	-0.1961812781838896	-0.6130750055858272	2.121439795299498	-0.05340788219245791	0.2149978915015706	-0.6625812132354081	2.079873738651978	2.079873738652159	-0.3953491470439028	-0.00178405248826491	0.5088440075844454	0.1271026469678991	-0.2455332237541077	0.008133075179585567	0.01692108642795851	-0.3137662673928447	0.006871245091844326	0.006319585881485661	0.27752871244442	-2.802213831732245	-40.99179222188683	-4.346478020602189	1.016314201581468	-6.613946684983867	-658.201191486816	66.03193196050174	0.6545173385745329	0.7639046586258967	-0.2158619115016596	-2.026872321268516	-0.1841619024377084	-0.3357891133775339	2.197328321389338	-2.047383934424578	-2.047383934452087	0.7967194604745454	0.003550117187969312	-0.8951024474759512	-0.5532656803306581	-2.284562269266802e-08	1.93684478791778e-07	2.036092478387146e-06	9.279447121272004e-07	-3.114378143520138e-07	-1.455979060668568e-07	1.638679985216701e-06
0.54	-0.1987228739410077	0.002595890372707983	0.7572775287490905	1.093468444396636	-0.2222866905974706	-0.1157658439138434	-0.6877088606235661	1.116641392147364	1.116641392147494	-0.09578695973716671	0.1744211083893731	0.3238117287355208	0.1515383917459971	-0.4494952159135114	-0.1885231461867876	-0.6148147293605833	2.100375457976159	-0.05514280336242468	0.2120048204333179	-0.6404139224842055	2.058646652803559	2.058646652803557	-0.3870757040233845	-0.001965742144452661	0.4996940858448949	0.1215878610026578	-0.2527998167813705	0.008842080844207722	0.01705118062839414	-0.3194817785717725	0.005936172032245494	0.006546995470469122	0.2840913842508933	-2.211093813792063	-41.68176211028138	-4.504073404626959	1.196271574517317	-6.540325848301832	-664.2103450359294	66.43747708661347	0.6926694563234234	0.7676238674773945	-0.1324207285639638	-2.182842437419028	-0.158430139637315	-0.2379508765014468	2.238963161211857	-2.193526246552412	-2.193526246552346	0.870559811858606	-0.06158423979486388	-0.9325795653423734	-0.5422780526455658	-1.346402258319173e-08	2.02432695486596e-07	1.972220800583649e-06	9.555489763948848e-07	-3.122857242571099e-07	-1.340154914824778e-07	1.64526080297391e-06
0.55	-0.2031824123809399	0.0007490302400629975	0.7511241949514118	1.114360268001028	-0.2228461787794012	-0.1136599462060684	-0.6940009123976709	1.137115227771315	1.137115227771309	-0.09961517686099497	0.1744004836497856	0.3287611718003564	0.1527264083392949	-0.4423481027237509	-0.1808495198156433	-0.6157099581048451	2.077728172326226	-0.05672955304771279	0.2091941892318948	-0.6179618969898368	2.035863698480476	2.035863698480479	-0.3785339427086194	-0.002156381586350158	0.4901295072579194	0.1160072091553157	-0.2597750098621694	0.009263896660520295	0.01710989438039021	-0.3253247303835498	0.004975322986879411	0.006856382802426564	0.2903412776553661	-1.691746944943685	-42.37068883032757	-4.608387210434114	1.347747956867591	-6.384802316824781	-670.1410513237842	66.97587534184291	0.7354165826386853	0.7670735514109425	-0.04678867646224136	-2.344804648498454	-0.1547943519230632	-0.2997535852840602	2.253502545509388	-2.359194381850948	-2.359194381850175	0.8512820777223302	0.002882530676911362	-0.9781939196697064	-0.566778631553211	-2.584293190601443e-09	2.11096783075038e-07	1.899221752171117e-06	9.895637364179328e-07	-3.110321058299673e-07	-1.234801508472881e-07	1.650198641879981e-06
0.5600000000000001	-0.2075685428225136	-0.001021125322974885	0.7449661659204687	1.13501779214495	-0.2234207338519919	-0.1115815816788893	-0.7000674078564465	1.157353530980734	1.157353530980504	-0.1033569168144014	0.1743780897811905	0.3336130096964551	0.1538584544379635	-0.4348136162405544	-0.1731822322653669	-0.6157537760133653	2.053515565887558	-0.05815618149101281	0.2064981842976313	-0.5953026594170692	2.011540169890801	2.011540169890809	-0.3697802699364267	-0.002319567945680713	0.4801730520991581	0.110393762076995	-0.2667502029431068	0.009685712477065065	0.01716860813166177	-0.3311676821954451	0.004014473941585184	0.007165770134801911	0.2965911710597002	-1.243796962536484	-43.05774586085258	-4.704885915863609	1.489427393489744	-6.263017883006012	-676.072941224074	67.53398014491827	0.7701441150105522	0.7663561033038705	0.03786143858432474	-2.495906595166061	-0.1264058912401133	-0.2150256230700958	2.280405576891539	-2.501641099870495	-2.501641099870385	0.912942103344121	-0.05609362328067166	-1.010954879699447	-0.5488370988417223	1.009319134172559e-08	2.196599157358289e-07	1.815269859027742e-06	1.031271091347417e-06	-3.072566534041383e-07	-1.142012989511254e-07	1.653164906164687e-06
0.5700000000000001	-0.2118774855036023	-0.002714702912096126	0.7388119257682706	1.155425588243544	-0.2240087003360349	-0.1095295294741957	-0.7059063454308626	1.177341158353965	1.177341158354333	-0.1070101892112374	0.1743540117484607	0.3383634884965667	0.1549343558927873	-0.4269130702381946	-0.165539629519275	-0.6149537726924641	2.027792764313519	-0.05941228191851067	0.2039357652065752	-0.5724647769558304	1.985749823706077	1.985749823705988	-0.3608375127386483	-0.002493124655197241	0.4698719521566656	0.1047845009220037	-0.273510624348623	0.01039052025755113	0.01712887299217541	-0.3369221796089231	0.003004271608877594	0.007245428521739646	0.3025825845583921	-0.8670485273959946	-43.77308865566484	-4.928235214342761	1.67660246537293	-6.044271313231884	-681.8310902457833	67.78731707795063	0.8093186238332074	0.762199742086038	0.122120248300391	-2.648067220376807	-0.1212816895168717	-0.2733515117218994	2.288491357199367	-2.653056988161608	-2.653056988176129	0.8906424925483983	0.002730246067066272	-1.047336111243323	-0.5668743526518683	2.07675800534763e-08	2.261429855606344e-07	1.737623734413977e-06	1.058406201589253e-06	-3.031464236672284e-07	-1.065926472174433e-07	1.655003082681867e-06
